:SAMPLES-PER-SECOND 30
:FULLY-SPECIFIED
:DEGREES
145
root  40.7982 39.1834 -2.90029 -13.1074 -85.912 15.0659
RightUpLeg  -19.242 -15.3245 -4.61172
RightLeg  23.7876 0.644228 0.0759671
RightFoot  -5.38515 -0.15334 2.27168
RightToes  2.32829e-010 0 -3.6325e-017
Spine  25.8134 -1.14534 7.58397
Spine1  2.38464 0.921794 -2.84219
HEad  -28.4878 -1.10432 -3.68727
LeftShoulder1  11.2237 -16.8723 -48.0805
LeftArm  -12.4893 -6.4138 -22.8356
LeftForeArm  20.7968 -51.3147 -12.4132
LeftHand  -0.244104 0.0205437 5.32207
RightShoulder  6.63865 11.6853 37.6711
RightArm  -7.91025 7.36877 29.9351
RightForeArm  -38.0126 48.7618 14.9986
RightHand  -1.1201 2.15943 -17.3096
LeftUpLeg  -20.2661 11.1993 2.28487
LeftLeg  23.4734 2.48452 1.51432
LeftFoot  -5.05065 0.16081 -2.37529
LeftToes  1.42787e-010 7.94111e-011 2.6399e-011
146
root  41.0714 38.9678 -2.92421 -20.2383 -86.2707 23.2153
RightUpLeg  -22.1853 -13.7998 -4.69891
RightLeg  26.1438 -0.337227 -0.409612
RightFoot  -5.70531 -0.140951 2.05215
RightToes  2.32829e-010 0 -3.6325e-017
Spine  27.0534 -1.10496 6.44323
Spine1  1.80584 0.789931 -2.87027
HEad  -29.6859 -0.317066 -3.895
LeftShoulder1  11.0606 -16.8746 -47.3652
LeftArm  -12.4971 -8.93729 -23.0055
LeftForeArm  21.3781 -53.2402 -13.3435
LeftHand  -0.244104 0.0205437 5.32207
RightShoulder  6.62448 11.774 37.3359
RightArm  -8.33243 10.3742 30.1418
RightForeArm  -35.5719 49.9843 15.5364
RightHand  -1.27347 2.94586 -17.8508
LeftUpLeg  -22.3267 12.0847 1.50356
LeftLeg  24.4232 2.05126 1.35241
LeftFoot  -4.4636 0.151541 -2.0734
LeftToes  1.42787e-010 7.94111e-011 2.6399e-011
147
root  41.392 38.6974 -2.91106 -22.6309 -85.6969 26.569
RightUpLeg  -25.1506 -13.7176 -4.92495
RightLeg  28.8535 -0.849681 -0.744625
RightFoot  -6.18402 -0.134909 1.93
RightToes  2.32829e-010 0 -3.6325e-017
Spine  28.3868 -1.516 5.64495
Spine1  1.51997 0.158499 -2.64666
HEad  -31.7072 0.458583 -4.03101
LeftShoulder1  11.0093 -16.9105 -47.0557
LeftArm  -12.7733 -12.0282 -22.8264
LeftForeArm  22.3758 -54.8158 -14.1241
LeftHand  -0.244104 0.0205437 5.32207
RightShoulder  6.69576 11.9795 37.2232
RightArm  -9.06976 13.2839 30.0561
RightForeArm  -31.6615 51.8055 16.382
RightHand  -1.2734 3.17118 -17.379
LeftUpLeg  -25.0686 12.0695 0.564868
LeftLeg  26.2734 1.58848 1.19261
LeftFoot  -4.29996 0.144365 -1.92566
LeftToes  1.42787e-010 7.94111e-011 2.6399e-011
148
root  41.7329 38.4168 -2.87924 -19.9556 -84.9067 24.6429
RightUpLeg  -27.7333 -14.1129 -4.95857
RightLeg  31.2862 -1.31275 -1.10804
RightFoot  -6.53493 -0.129621 1.82026
RightToes  2.32829e-010 0 -3.6325e-017
Spine  29.7571 -1.96339 5.70674
Spine1  1.67824 -0.257859 -2.71338
HEad  -34.0804 0.536467 -3.90165
LeftShoulder1  11.1658 -17.1978 -47.0605
LeftArm  -12.6165 -15.9755 -22.8801
LeftForeArm  22.6094 -54.9492 -14.1835
LeftHand  -0.244104 0.0205437 5.32207
RightShoulder  6.79804 12.2277 37.1915
RightArm  -10.3566 15.434 29.5503
RightForeArm  -27.7436 54.1476 17.6297
RightHand  -1.13551 2.6164 -16.5995
LeftUpLeg  -27.7261 12.0398 -0.150857
LeftLeg  28.2745 1.11753 0.993536
LeftFoot  -4.43108 0.128985 -1.69467
LeftToes  1.42787e-010 7.94111e-011 2.6399e-011
149
root  42.0686 38.1631 -2.8473 -17.3538 -84.4401 22.6058
RightUpLeg  -29.8735 -14.1543 -4.82427
RightLeg  33.1375 -1.84277 -1.54871
RightFoot  -6.64929 -0.117816 1.61187
RightToes  2.32829e-010 0 -3.6325e-017
Spine  31.1336 -2.11654 6.24038
Spine1  2.02103 -0.128168 -3.11129
HEad  -36.0954 0.00495064 -3.57528
LeftShoulder1  11.4377 -17.68 -47.1076
LeftArm  -11.4211 -20.3519 -23.7186
LeftForeArm  21.5234 -53.1587 -13.2922
LeftHand  -0.244104 0.0205437 5.32207
RightShoulder  6.86087 12.4417 37.0101
RightArm  -11.6952 16.784 28.9975
RightForeArm  -25.4435 56.0519 18.8052
RightHand  -1.16726 2.56106 -17.1285
LeftUpLeg  -29.939 12.4995 -0.690531
LeftLeg  29.9247 0.438274 0.619433
LeftFoot  -4.54082 0.109288 -1.38742
LeftToes  1.42787e-010 7.94111e-011 2.6399e-011
150
root  42.3837 37.9534 -2.81135 -16.2379 -84.1573 21.9647
RightUpLeg  -31.6521 -14.0472 -4.76325
RightLeg  34.495 -2.22154 -1.89966
RightFoot  -6.63738 -0.102607 1.35491
RightToes  2.32829e-010 0 -3.6325e-017
Spine  32.4437 -2.11776 6.64029
Spine1  2.29078 0.138755 -3.39917
HEad  -37.5112 -0.492125 -3.26412
LeftShoulder1  11.645 -18.0629 -47.1071
LeftArm  -9.05737 -24.6355 -25.2091
LeftForeArm  19.5902 -49.5749 -11.7066
LeftHand  -0.244104 0.0205437 5.32207
RightShoulder  6.90459 12.6334 36.7755
RightArm  -12.2328 18.0576 28.686
RightForeArm  -25.3078 56.3008 18.9842
RightHand  -1.49332 3.76159 -19.0219
LeftUpLeg  -31.7621 12.7536 -1.21674
LeftLeg  31.1666 -0.0372778 0.327522
LeftFoot  -4.51923 0.0897062 -1.07932
LeftToes  1.42787e-010 7.94111e-011 2.6399e-011
